<svg xmlns="http://www.w3.org/2000/svg" width="40" height="40" viewBox="0 0 10.583 10.583"><path d="M4.32 0l-.19 1.24a4.216 4.216 0 00-.87.363L2.232.87.862 2.238l.743 1.01a4.216 4.216 0 00-.361.872L0 4.328v1.936l1.239.19a4.216 4.216 0 00.362.87L.868 8.352l1.37 1.37 1.01-.743a4.216 4.216 0 00.873.361l.207 1.243h1.935l.19-1.24a4.216 4.216 0 00.871-.361l1.028.732L9.72 8.347l-.743-1.01a4.216 4.216 0 00.36-.874l1.245-.207V4.32l-1.24-.189a4.216 4.216 0 00-.362-.87l.734-1.029L8.346.863l-1.01.743a4.216 4.216 0 00-.872-.362L6.255 0zm.972 2.905A2.387 2.387 0 017.68 5.292a2.387 2.387 0 01-2.387 2.386 2.387 2.387 0 01-2.388-2.386 2.387 2.387 0 012.388-2.387z" fill="silver" paint-order="fill markers stroke"/></svg>